<?xml version="1.0" encoding="UTF-8"?>
<!DOCTYPE svg PUBLIC "-//W3C//DTD SVG 1.0//EN" "http://www.w3.org/TR/2001/REC-SVG-20010904/DTD/svg10.dtd">
<!-- Creator: CorelDRAW X7 -->
<svg xmlns="http://www.w3.org/2000/svg" xml:space="preserve" width="100mm" height="28.176mm" version="1.0" style="shape-rendering:geometricPrecision; text-rendering:geometricPrecision; image-rendering:optimizeQuality; fill-rule:evenodd; clip-rule:evenodd"
viewBox="0 0 10000 2818"
 xmlns:xlink="http://www.w3.org/1999/xlink">
 <defs>
  <style type="text/css">
   <![CDATA[
    .fil1 {fill:#003142;fill-rule:nonzero}
    .fil0 {fill:#DE4329;fill-rule:nonzero}
   ]]>
  </style>
 </defs>
 <g id="Слой_x0020_1">
  <metadata id="CorelCorpID_0Corel-Layer"/>
  <g id="_620682160">
   <path class="fil0" d="M8948 5c-580,-3 -1054,464 -1058,1043 -3,579 465,1051 1046,1055 581,3 1055,-463 1058,-1043 4,-579 -464,-1051 -1046,-1055zm286 1448l0 0c-81,71 -195,106 -341,105 -129,0 -255,-37 -376,-110l122 -235c95,63 183,95 265,95 70,0 104,-23 105,-71 0,-25 -12,-44 -36,-58 -16,-9 -51,-20 -106,-32 -61,-14 -101,-25 -120,-32 -68,-27 -113,-68 -136,-124 -13,-31 -19,-67 -19,-110 1,-82 29,-154 86,-215 73,-78 185,-117 336,-116 105,1 207,21 305,63l-114 214c-62,-33 -121,-50 -178,-50 -67,0 -100,23 -100,69 0,21 13,38 40,51 12,6 48,16 107,28 87,19 151,49 192,88 52,51 78,116 77,195 0,100 -37,182 -109,245z"/>
   <polygon class="fil1" points="3473,2037 2958,2037 2958,1215 2215,1215 2215,2037 1700,2037 1700,62 2215,62 2215,825 2958,825 2958,62 3473,62 "/>
   <path class="fil1" d="M5703 2037l-550 0 -127 -345 -711 0 -137 345 -543 0 761 -1975 561 0 746 1975zm-816 -735l0 0 -214 -629 -216 629 430 0z"/>
   <path class="fil0" d="M7722 942c0,214 -24,388 -72,523 -74,205 -195,364 -364,474 -164,107 -357,160 -581,160 -363,0 -642,-124 -837,-371 -147,-187 -220,-410 -220,-669 0,-288 86,-529 258,-725 196,-223 468,-334 818,-334 234,0 433,60 595,179 116,85 215,211 297,376l-487 201c-42,-92 -90,-161 -145,-207 -80,-65 -175,-98 -284,-98 -224,0 -381,115 -469,345 -33,85 -49,172 -49,263 0,187 60,344 179,469 88,93 206,140 353,140 131,0 235,-38 312,-114 50,-50 83,-124 99,-222l-424 0 0 -390 1021 0z"/>
   <path class="fil1" d="M1507 1475c0,148 -42,268 -126,361 -122,133 -308,201 -557,201l-824 0 0 -1975 815 0c372,0 557,172 557,515 0,103 -25,181 -65,251 -50,90 -171,165 -202,159 158,35 266,95 324,189 52,86 78,186 78,299zm-612 -830l0 0c0,-89 -40,-149 -121,-178 -29,-9 -67,-14 -116,-14l-143 0 0 386 143 0c89,0 153,-22 191,-65 31,-35 46,-78 46,-129zm97 796l0 0c0,-115 -59,-183 -178,-203 -37,-6 -102,-8 -193,-8l-106 0 0 416 114 0c131,0 223,-15 275,-46 59,-35 88,-88 88,-159z"/>
   <g>
    <path class="fil1" d="M0 2523l191 0 0 51 -132 0 0 63 60 0c26,0 49,4 66,12 18,8 31,18 39,31 8,13 12,27 12,42 0,29 -11,52 -32,68 -10,8 -20,13 -32,16 -12,3 -27,4 -48,4l-124 0 0 -287zm59 162l0 0 0 73 58 0c22,0 37,-2 46,-7 8,-6 12,-15 12,-29 0,-15 -4,-25 -12,-30 -7,-5 -22,-7 -45,-7l-59 0z"/>
    <path class="fil1" d="M503 2523l59 0 0 114 60 0c27,0 49,4 66,12 18,8 31,18 39,31 8,13 12,27 12,42 0,29 -11,52 -32,68 -9,8 -20,13 -32,16 -11,3 -27,4 -48,4l-124 0 0 -287zm59 162l0 0 0 73 58 0c22,0 37,-2 46,-7 8,-6 12,-15 12,-29 0,-15 -4,-25 -11,-30 -8,-5 -23,-7 -46,-7l-59 0zm224 125l0 0 0 -287 60 0 0 287 -60 0z"/>
    <polygon class="fil1" points="1107,2523 1338,2523 1338,2574 1253,2574 1253,2810 1194,2810 1194,2574 1107,2574 "/>
    <path class="fil1" d="M1609 2523l59 0 0 114 60 0c26,0 48,4 66,12 18,8 31,18 39,31 8,13 12,27 12,42 0,29 -11,52 -32,68 -10,8 -20,13 -32,16 -12,3 -28,4 -48,4l-124 0 0 -287zm59 162l0 0 0 73 58 0c22,0 37,-2 45,-7 8,-6 13,-15 13,-29 0,-15 -4,-25 -12,-30 -8,-5 -23,-7 -45,-7l-59 0z"/>
    <polygon class="fil1" points="2570,2810 2509,2810 2545,2735 2430,2513 2497,2513 2575,2671 2644,2513 2705,2513 "/>
    <path class="fil1" d="M3140 2598c-15,-19 -40,-37 -75,-37 -60,0 -101,48 -101,101 0,56 44,102 101,102 27,0 53,-10 72,-35l64 0c-25,53 -72,89 -137,89 -105,0 -155,-88 -155,-156 0,-66 50,-154 155,-154 62,0 114,33 139,90l-63 0z"/>
    <polygon class="fil1" points="3451,2523 3684,2523 3684,2810 3625,2810 3625,2574 3510,2574 3510,2810 3451,2810 "/>
    <polygon class="fil1" points="3964,2523 4171,2523 4171,2574 4023,2574 4023,2636 4159,2636 4159,2685 4023,2685 4023,2758 4177,2758 4177,2810 3964,2810 "/>
    <polygon class="fil1" points="4815,2810 4458,2810 4458,2523 4517,2523 4517,2758 4607,2758 4607,2523 4666,2523 4666,2758 4756,2758 4756,2523 4815,2523 "/>
    <polygon class="fil1" points="5092,2523 5151,2523 5151,2634 5266,2634 5266,2523 5325,2523 5325,2810 5266,2810 5266,2686 5151,2686 5151,2810 5092,2810 "/>
    <path class="fil1" d="M5600 2523l59 0 0 114 60 0c26,0 49,4 66,12 18,8 31,18 39,31 8,13 12,27 12,42 0,29 -11,52 -32,68 -10,8 -20,13 -32,16 -11,3 -28,4 -48,4l-124 0 0 -287zm59 162l0 0 0 73 58 0c22,0 37,-2 45,-7 9,-6 13,-15 13,-29 0,-15 -4,-25 -12,-30 -7,-5 -23,-7 -45,-7l-59 0zm224 125l0 0 0 -287 59 0 0 287 -59 0z"/>
    <polygon class="fil1" points="6226,2513 6301,2513 6384,2740 6467,2513 6542,2513 6542,2810 6487,2810 6487,2588 6407,2810 6360,2810 6281,2588 6281,2810 6226,2810 "/>
    <polygon class="fil1" points="7141,2523 7374,2523 7374,2810 7315,2810 7315,2574 7200,2574 7200,2810 7141,2810 "/>
    <path class="fil1" d="M7654 2523l119 0c29,0 49,4 63,14 23,17 35,43 35,77 0,34 -11,60 -34,78 -8,6 -18,10 -28,13 -10,2 -23,3 -39,3l-57 0 0 102 -59 0 0 -287zm59 51l0 0 0 82 47 0c18,0 31,-3 39,-9 7,-6 11,-16 11,-30 0,-15 -4,-26 -11,-33 -8,-6 -21,-10 -39,-10l-47 0z"/>
    <path class="fil1" d="M8439 2663c0,86 -68,155 -157,155 -88,0 -157,-69 -157,-155 0,-86 68,-155 157,-155 89,0 157,69 157,155zm-55 -1l0 0c0,-55 -43,-101 -102,-101 -58,0 -102,46 -102,101 0,56 44,102 102,102 59,0 102,-46 102,-102z"/>
    <path class="fil1" d="M8908 2598c-14,-19 -39,-37 -74,-37 -60,0 -102,48 -102,101 0,56 45,102 102,102 27,0 53,-10 72,-35l64 0c-25,53 -73,89 -138,89 -104,0 -155,-88 -155,-156 0,-66 51,-154 156,-154 62,0 113,33 138,90l-63 0z"/>
    <polygon class="fil1" points="9198,2523 9430,2523 9430,2574 9344,2574 9344,2810 9285,2810 9285,2574 9198,2574 "/>
    <path class="fil1" d="M10000 2663c0,86 -68,155 -157,155 -89,0 -157,-69 -157,-155 0,-86 68,-155 157,-155 89,0 157,69 157,155zm-55 -1l0 0c0,-55 -44,-101 -102,-101 -59,0 -102,46 -102,101 0,56 44,102 102,102 59,0 102,-46 102,-102z"/>
   </g>
  </g>
 </g>
</svg>
